<svg xmlns="http://www.w3.org/2000/svg" viewBox="0 0 1776 400"><title>banner</title><path d="M0 0h1776v400H0z"/><path d="M535.3 98.75h24.58V257h83.2v23H535.3V98.75zm119.83 16.39a17 17 0 1 1 5 11.9 16.25 16.25 0 0 1-5-11.9zm5.38 43.52h23V280h-23V158.66zm40.7 0h26.62l36.35 92.93L799 158.66h24.58L776 280h-25.39zm151.55 69.12a30.42 30.42 0 0 0 3.46 14.46 36 36 0 0 0 9.09 11.14 41.93 41.93 0 0 0 13.06 7.17 46.75 46.75 0 0 0 15.36 2.56 34.36 34.36 0 0 0 18.69-5A60.19 60.19 0 0 0 927 244.93l17.41 13.31q-19.2 24.83-53.76 24.83a66.85 66.85 0 0 1-26-4.86A56.49 56.49 0 0 1 845 264.77a59.56 59.56 0 0 1-12.42-20.22 71.42 71.42 0 0 1-4.35-25.22 66.29 66.29 0 0 1 4.74-25.22A62.53 62.53 0 0 1 846 173.89a59.59 59.59 0 0 1 19.84-13.44 63.87 63.87 0 0 1 25.09-4.86q16.13 0 27.26 5.63a53.94 53.94 0 0 1 18.3 14.72 58.23 58.23 0 0 1 10.37 20.48 85.35 85.35 0 0 1 3.2 23.17v8.19h-97.3zm72.7-18.43a48.73 48.73 0 0 0-2.46-14.09 31.06 31.06 0 0 0-6.53-11.14 30.1 30.1 0 0 0-10.88-7.42 39.81 39.81 0 0 0-15.2-2.7 37 37 0 0 0-15.49 3.2 37.73 37.73 0 0 0-11.9 8.32 38.44 38.44 0 0 0-7.55 11.39 31.34 31.34 0 0 0-2.69 12.42h72.7zm167.17-87.56h-58.37v-23h141.31v23h-58.37V280h-24.58V121.79zm69.96 97.54a61.78 61.78 0 0 1 5-24.83 64.7 64.7 0 0 1 13.7-20.22 65.19 65.19 0 0 1 91.65 0 64.76 64.76 0 0 1 13.7 20.22 61.78 61.78 0 0 1 5 24.83 63.1 63.1 0 0 1-18.69 45.18 65 65 0 0 1-20.48 13.57 65.59 65.59 0 0 1-71.17-13.57 63.1 63.1 0 0 1-18.71-45.18zm24.58 0a49.77 49.77 0 0 0 2.82 17 38.29 38.29 0 0 0 7.94 13.31 36.66 36.66 0 0 0 12.54 8.7 44.87 44.87 0 0 0 33.28 0 36.73 36.73 0 0 0 12.54-8.7 38.41 38.41 0 0 0 7.94-13.31 52.88 52.88 0 0 0 0-34 38.48 38.48 0 0 0-7.94-13.31 36.83 36.83 0 0 0-12.54-8.7 44.86 44.86 0 0 0-33.28 0 36.76 36.76 0 0 0-12.54 8.7 38.36 38.36 0 0 0-7.93 13.28 49.78 49.78 0 0 0-2.83 17.03zm122.54 0a61.78 61.78 0 0 1 5-24.83 64.7 64.7 0 0 1 13.7-20.22 65.19 65.19 0 0 1 91.65 0 64.76 64.76 0 0 1 13.7 20.22 61.78 61.78 0 0 1 5 24.83 63.1 63.1 0 0 1-18.69 45.18 65 65 0 0 1-20.48 13.57 65.59 65.59 0 0 1-71.17-13.57 63.1 63.1 0 0 1-18.71-45.18zm24.58 0a49.77 49.77 0 0 0 2.82 17 38.29 38.29 0 0 0 7.94 13.31 36.66 36.66 0 0 0 12.54 8.7 44.87 44.87 0 0 0 33.28 0 36.73 36.73 0 0 0 12.54-8.7 38.41 38.41 0 0 0 7.94-13.31 52.88 52.88 0 0 0 0-34 38.48 38.48 0 0 0-7.94-13.31 36.83 36.83 0 0 0-12.54-8.7 44.86 44.86 0 0 0-33.28 0A36.76 36.76 0 0 0 1345 189a38.36 38.36 0 0 0-7.94 13.31 49.78 49.78 0 0 0-2.77 17.02zm130.15-132.87h23V280h-23V86.46zM1584 189.12a35.37 35.37 0 0 0-10.11-8.58q-6-3.46-14.72-3.46a28 28 0 0 0-14.21 3.46 11 11 0 0 0-6 10.11 11.53 11.53 0 0 0 3.46 8.7 27.2 27.2 0 0 0 8.19 5.38 47.71 47.71 0 0 0 10.11 3.07q5.38 1 9.22 1.79a107.48 107.48 0 0 1 14 4.35 38.67 38.67 0 0 1 11.26 6.66 28.91 28.91 0 0 1 7.42 10 34.4 34.4 0 0 1 2.69 14.34q0 10.24-4.35 17.54a36.72 36.72 0 0 1-11.26 11.9 47.37 47.37 0 0 1-15.74 6.66 78.58 78.58 0 0 1-17.79 2q-15.11 0-26.5-4.61t-20.35-16.9l17.41-14.34a71.44 71.44 0 0 0 12.54 10q6.91 4.36 16.9 4.35a44.76 44.76 0 0 0 8.83-.9 27.21 27.21 0 0 0 7.94-2.82 17.38 17.38 0 0 0 5.63-4.86 11.12 11.12 0 0 0 2.18-6.78 11.7 11.7 0 0 0-3.2-8.45 23.27 23.27 0 0 0-7.68-5.25 55.92 55.92 0 0 0-9.47-3.07q-5-1.15-8.83-1.92-7.43-1.79-14.08-4.1a42.73 42.73 0 0 1-11.78-6.14 28.32 28.32 0 0 1-8.19-9.73q-3.07-5.89-3.07-14.59a33.06 33.06 0 0 1 4-16.51 35.27 35.27 0 0 1 10.5-11.65 47.46 47.46 0 0 1 14.85-6.91 62.55 62.55 0 0 1 16.77-2.3 61.63 61.63 0 0 1 23.55 4.61 37.32 37.32 0 0 1 17.88 15.38zM210.34 112.31a2.75 2.75 0 0 0-2.35 2.57v18.38a2.8 2.8 0 0 0 2.35 2.78h163.1a2.66 2.66 0 0 0 2.57-2.78v-18.38a2.6 2.6 0 0 0-2.57-2.57h-163.1zm0-48.31a2.75 2.75 0 0 0-2.34 2.57v18.38a2.8 2.8 0 0 0 2.35 2.78h163.1a2.66 2.66 0 0 0 2.55-2.78V66.57a2.6 2.6 0 0 0-2.57-2.57H210.34zm69.36 98.34a2.75 2.75 0 0 0-2.57-2.35h-18.38a2.8 2.8 0 0 0-2.78 2.35v163.1a2.66 2.66 0 0 0 2.78 2.57h18.38a2.6 2.6 0 0 0 2.57-2.57v-163.1zm48.31 0a2.75 2.75 0 0 0-2.57-2.35h-18.38a2.8 2.8 0 0 0-2.78 2.35v163.1a2.66 2.66 0 0 0 2.78 2.57h18.38a2.6 2.6 0 0 0 2.57-2.57v-163.1zM66.58 304.27a2.75 2.75 0 0 0-2.35 2.57v18.38a2.8 2.8 0 0 0 2.35 2.78h163.1a2.66 2.66 0 0 0 2.57-2.78v-18.38a2.6 2.6 0 0 0-2.57-2.57H66.58zm0-48.31a2.75 2.75 0 0 0-2.35 2.57v18.38a2.8 2.8 0 0 0 2.35 2.78h163.1a2.66 2.66 0 0 0 2.57-2.78v-18.38a2.6 2.6 0 0 0-2.57-2.57H66.58zM88 66.35A2.75 2.75 0 0 0 85.39 64H67a2.8 2.8 0 0 0-2.78 2.35v163.1A2.66 2.66 0 0 0 67 232h18.39a2.6 2.6 0 0 0 2.61-2.55V66.35zm48.31 0A2.75 2.75 0 0 0 133.7 64h-18.39a2.8 2.8 0 0 0-2.78 2.35v163.1a2.66 2.66 0 0 0 2.78 2.57h18.39a2.6 2.6 0 0 0 2.57-2.57V66.35z" fill="#fff"/><path fill="none" d="M64.26 64h264v264h-264z"/></svg>